<?xml version="1.0" encoding="UTF-8"?>
<svg xmlns="http://www.w3.org/2000/svg" xmlns:xlink="http://www.w3.org/1999/xlink" width="32px" height="32px" viewBox="0 0 32 32" version="1.1">
<g id="surface1">
<path style=" stroke:none;fill-rule:nonzero;fill:rgb(98.823529%,98.823529%,98.823529%);fill-opacity:1;" d="M 10 3.25 C 10.023438 3.34375 10.050781 3.433594 10.074219 3.527344 C 10.1875 3.953125 10.300781 4.375 10.414062 4.796875 C 10.472656 5.015625 10.472656 5.015625 10.53125 5.234375 C 10.570312 5.378906 10.609375 5.519531 10.648438 5.667969 C 10.683594 5.796875 10.714844 5.925781 10.753906 6.058594 C 10.910156 6.625 11.082031 7.1875 11.25 7.75 C 14.757812 7.707031 18.261719 7.667969 21.875 7.625 C 22.246094 6.636719 22.617188 5.644531 23 4.625 C 23.125 4.296875 23.246094 3.964844 23.375 3.625 C 23.539062 3.582031 23.703125 3.542969 23.875 3.5 C 24.195312 3.878906 24.316406 4.171875 24.40625 4.65625 C 24.429688 4.785156 24.453125 4.917969 24.480469 5.054688 C 24.503906 5.195312 24.527344 5.335938 24.554688 5.484375 C 24.582031 5.632812 24.609375 5.785156 24.636719 5.9375 C 25.074219 8.472656 25.382812 11.007812 25.585938 13.570312 C 25.59375 13.667969 25.601562 13.761719 25.609375 13.863281 C 25.820312 16.59375 25.90625 19.324219 25.953125 22.0625 C 25.960938 22.515625 25.96875 22.96875 25.976562 23.425781 C 25.984375 23.78125 25.992188 24.136719 25.996094 24.488281 C 26 24.738281 26.007812 24.984375 26.011719 25.234375 C 26.023438 26.039062 25.996094 26.730469 25.75 27.5 C 26.410156 27.5 27.070312 27.5 27.75 27.5 C 28 26.996094 27.9375 26.421875 27.875 25.875 C 27.703125 25.371094 27.460938 24.910156 27.210938 24.4375 C 26.074219 22.265625 25.703125 20.132812 26.375 17.75 C 26.714844 16.851562 27.167969 15.910156 28 15.375 C 28.351562 15.367188 28.351562 15.367188 28.625 15.5 C 28.875 15.75 28.875 15.75 28.875 16.023438 C 28.75 16.375 28.648438 16.507812 28.398438 16.773438 C 27.5625 17.691406 27.359375 18.871094 27.34375 20.078125 C 27.339844 20.214844 27.335938 20.355469 27.332031 20.496094 C 27.394531 21.777344 27.90625 22.933594 28.453125 24.070312 C 28.578125 24.332031 28.703125 24.597656 28.824219 24.859375 C 28.878906 24.972656 28.933594 25.089844 28.992188 25.207031 C 29.324219 25.9375 29.367188 26.722656 29.191406 27.511719 C 28.972656 28.101562 28.625 28.402344 28.125 28.75 C 27.710938 28.890625 27.316406 28.890625 26.882812 28.890625 C 26.65625 28.890625 26.65625 28.890625 26.421875 28.894531 C 26.257812 28.894531 26.089844 28.894531 25.921875 28.894531 C 25.742188 28.894531 25.566406 28.894531 25.390625 28.894531 C 24.910156 28.894531 24.429688 28.894531 23.949219 28.894531 C 23.648438 28.894531 23.347656 28.894531 23.046875 28.898438 C 21.996094 28.898438 20.949219 28.898438 19.898438 28.898438 C 18.921875 28.898438 17.945312 28.898438 16.96875 28.902344 C 16.128906 28.902344 15.289062 28.902344 14.449219 28.902344 C 13.949219 28.902344 13.449219 28.902344 12.945312 28.90625 C 12.476562 28.90625 12.003906 28.90625 11.53125 28.90625 C 11.359375 28.90625 11.1875 28.90625 11.015625 28.90625 C 8.667969 28.917969 8.667969 28.917969 7.75 28.125 C 7.175781 27.335938 7.179688 26.535156 7.191406 25.59375 C 7.191406 25.445312 7.191406 25.296875 7.191406 25.144531 C 7.191406 24.660156 7.199219 24.179688 7.203125 23.695312 C 7.203125 23.527344 7.207031 23.363281 7.207031 23.195312 C 7.222656 20.332031 7.296875 17.480469 7.5 14.625 C 7.507812 14.535156 7.511719 14.445312 7.519531 14.351562 C 7.746094 11.132812 8.152344 7.929688 8.773438 4.765625 C 8.792969 4.667969 8.8125 4.566406 8.832031 4.464844 C 9.007812 3.621094 9.007812 3.621094 9.25 3.25 C 9.5625 3.09375 9.675781 3.152344 10 3.25 Z M 10 3.25 "/>
<path style=" stroke:none;fill-rule:nonzero;fill:rgb(1.176471%,1.176471%,1.176471%);fill-opacity:1;" d="M 10 3.25 C 10.023438 3.34375 10.050781 3.433594 10.074219 3.527344 C 10.1875 3.953125 10.300781 4.375 10.414062 4.796875 C 10.472656 5.015625 10.472656 5.015625 10.53125 5.234375 C 10.570312 5.378906 10.609375 5.519531 10.648438 5.667969 C 10.683594 5.796875 10.714844 5.925781 10.753906 6.058594 C 10.910156 6.625 11.082031 7.1875 11.25 7.75 C 14.757812 7.707031 18.261719 7.667969 21.875 7.625 C 22.246094 6.636719 22.617188 5.644531 23 4.625 C 23.125 4.296875 23.246094 3.964844 23.375 3.625 C 23.539062 3.582031 23.703125 3.542969 23.875 3.5 C 24.195312 3.878906 24.316406 4.171875 24.40625 4.65625 C 24.429688 4.785156 24.453125 4.917969 24.480469 5.054688 C 24.503906 5.195312 24.527344 5.335938 24.554688 5.484375 C 24.582031 5.632812 24.609375 5.785156 24.636719 5.9375 C 25.074219 8.472656 25.382812 11.007812 25.585938 13.570312 C 25.59375 13.667969 25.601562 13.761719 25.609375 13.863281 C 25.820312 16.59375 25.90625 19.324219 25.953125 22.0625 C 25.960938 22.515625 25.96875 22.96875 25.976562 23.425781 C 25.984375 23.78125 25.992188 24.136719 25.996094 24.488281 C 26 24.738281 26.007812 24.984375 26.011719 25.234375 C 26.023438 26.039062 25.996094 26.730469 25.75 27.5 C 26.410156 27.5 27.070312 27.5 27.75 27.5 C 28 26.996094 27.9375 26.421875 27.875 25.875 C 27.703125 25.371094 27.460938 24.910156 27.210938 24.4375 C 26.074219 22.265625 25.703125 20.132812 26.375 17.75 C 26.714844 16.851562 27.167969 15.910156 28 15.375 C 28.351562 15.367188 28.351562 15.367188 28.625 15.5 C 28.875 15.75 28.875 15.75 28.875 16.023438 C 28.75 16.375 28.648438 16.507812 28.398438 16.773438 C 27.5625 17.691406 27.359375 18.871094 27.34375 20.078125 C 27.339844 20.214844 27.335938 20.355469 27.332031 20.496094 C 27.394531 21.777344 27.90625 22.933594 28.453125 24.070312 C 28.578125 24.332031 28.703125 24.597656 28.824219 24.859375 C 28.878906 24.972656 28.933594 25.089844 28.992188 25.207031 C 29.324219 25.9375 29.367188 26.722656 29.191406 27.511719 C 28.972656 28.101562 28.625 28.402344 28.125 28.75 C 27.710938 28.890625 27.316406 28.890625 26.882812 28.890625 C 26.65625 28.890625 26.65625 28.890625 26.421875 28.894531 C 26.257812 28.894531 26.089844 28.894531 25.921875 28.894531 C 25.742188 28.894531 25.566406 28.894531 25.390625 28.894531 C 24.910156 28.894531 24.429688 28.894531 23.949219 28.894531 C 23.648438 28.894531 23.347656 28.894531 23.046875 28.898438 C 21.996094 28.898438 20.949219 28.898438 19.898438 28.898438 C 18.921875 28.898438 17.945312 28.898438 16.96875 28.902344 C 16.128906 28.902344 15.289062 28.902344 14.449219 28.902344 C 13.949219 28.902344 13.449219 28.902344 12.945312 28.90625 C 12.476562 28.90625 12.003906 28.90625 11.53125 28.90625 C 11.359375 28.90625 11.1875 28.90625 11.015625 28.90625 C 8.667969 28.917969 8.667969 28.917969 7.75 28.125 C 7.175781 27.335938 7.179688 26.535156 7.191406 25.59375 C 7.191406 25.445312 7.191406 25.296875 7.191406 25.144531 C 7.191406 24.660156 7.199219 24.179688 7.203125 23.695312 C 7.203125 23.527344 7.207031 23.363281 7.207031 23.195312 C 7.222656 20.332031 7.296875 17.480469 7.5 14.625 C 7.507812 14.535156 7.511719 14.445312 7.519531 14.351562 C 7.746094 11.132812 8.152344 7.929688 8.773438 4.765625 C 8.792969 4.667969 8.8125 4.566406 8.832031 4.464844 C 9.007812 3.621094 9.007812 3.621094 9.25 3.25 C 9.5625 3.09375 9.675781 3.152344 10 3.25 Z M 9.5 6 C 9.148438 8.410156 8.828125 10.820312 8.625 13.25 C 8.613281 13.40625 8.597656 13.566406 8.585938 13.726562 C 8.355469 16.628906 8.34375 19.539062 8.328125 22.445312 C 8.328125 22.757812 8.324219 23.066406 8.324219 23.378906 C 8.320312 23.871094 8.316406 24.363281 8.316406 24.859375 C 8.316406 25.042969 8.316406 25.226562 8.316406 25.410156 C 8.3125 25.667969 8.3125 25.921875 8.3125 26.179688 C 8.3125 26.324219 8.3125 26.464844 8.3125 26.613281 C 8.386719 27.082031 8.546875 27.289062 8.875 27.625 C 9.179688 27.777344 9.371094 27.765625 9.710938 27.765625 C 9.894531 27.769531 9.894531 27.769531 10.082031 27.769531 C 10.289062 27.769531 10.289062 27.769531 10.496094 27.769531 C 10.636719 27.769531 10.78125 27.769531 10.929688 27.773438 C 11.402344 27.773438 11.875 27.773438 12.351562 27.773438 C 12.679688 27.777344 13.007812 27.777344 13.335938 27.777344 C 13.9375 27.777344 14.539062 27.78125 15.140625 27.78125 C 16.023438 27.78125 16.910156 27.78125 17.792969 27.785156 C 18.5625 27.789062 19.328125 27.789062 20.09375 27.789062 C 20.417969 27.789062 20.746094 27.792969 21.070312 27.792969 C 21.527344 27.796875 21.984375 27.796875 22.441406 27.792969 C 22.640625 27.796875 22.640625 27.796875 22.847656 27.796875 C 23.792969 27.792969 23.792969 27.792969 24.625 27.375 C 24.878906 26.9375 24.90625 26.550781 24.90625 26.050781 C 24.90625 25.910156 24.910156 25.769531 24.910156 25.628906 C 24.910156 25.476562 24.910156 25.328125 24.90625 25.171875 C 24.910156 25.015625 24.910156 24.859375 24.910156 24.699219 C 24.910156 24.273438 24.910156 23.847656 24.90625 23.421875 C 24.90625 23.15625 24.90625 22.890625 24.90625 22.625 C 24.890625 17.109375 24.640625 11.578125 23.75 6.125 C 23.667969 6.125 23.585938 6.125 23.5 6.125 C 23.457031 6.238281 23.457031 6.238281 23.410156 6.351562 C 23.277344 6.691406 23.140625 7.027344 23.007812 7.367188 C 22.960938 7.484375 22.914062 7.605469 22.867188 7.726562 C 22.800781 7.894531 22.800781 7.894531 22.730469 8.066406 C 22.691406 8.171875 22.648438 8.273438 22.605469 8.382812 C 22.5 8.625 22.5 8.625 22.375 8.75 C 22.011719 8.761719 21.65625 8.765625 21.292969 8.765625 C 21.125 8.765625 21.125 8.765625 20.949219 8.765625 C 20.574219 8.765625 20.195312 8.761719 19.820312 8.761719 C 19.558594 8.761719 19.300781 8.761719 19.039062 8.761719 C 18.351562 8.761719 17.664062 8.761719 16.976562 8.757812 C 16.277344 8.757812 15.578125 8.757812 14.875 8.757812 C 13.5 8.753906 12.125 8.753906 10.75 8.75 C 10.648438 8.550781 10.546875 8.351562 10.449219 8.152344 C 10.390625 8.042969 10.335938 7.929688 10.277344 7.816406 C 10.097656 7.445312 9.960938 7.066406 9.835938 6.671875 C 9.796875 6.542969 9.753906 6.414062 9.710938 6.285156 C 9.683594 6.191406 9.65625 6.097656 9.625 6 C 9.582031 6 9.542969 6 9.5 6 Z M 9.5 6 "/>
<path style=" stroke:none;fill-rule:nonzero;fill:rgb(5.882353%,5.882353%,5.882353%);fill-opacity:1;" d="M 12.890625 13 C 13.25 13.125 13.25 13.125 13.492188 13.335938 C 13.675781 13.734375 13.625 13.960938 13.5 14.375 C 13.359375 14.609375 13.359375 14.609375 13.125 14.75 C 12.6875 14.804688 12.6875 14.804688 12.25 14.75 C 11.921875 14.476562 11.882812 14.292969 11.8125 13.875 C 11.875 13.5 11.875 13.5 12.140625 13.195312 C 12.5 13 12.5 13 12.890625 13 Z M 12.890625 13 "/>
<path style=" stroke:none;fill-rule:nonzero;fill:rgb(3.921569%,3.921569%,3.921569%);fill-opacity:1;" d="M 20.4375 12.9375 C 20.863281 13.023438 21.003906 13.144531 21.25 13.5 C 21.304688 13.933594 21.328125 14.230469 21.117188 14.617188 C 20.730469 14.828125 20.429688 14.804688 20 14.75 C 19.671875 14.476562 19.632812 14.296875 19.570312 13.875 C 19.625 13.5 19.625 13.5 19.835938 13.203125 C 20.125 13 20.125 13 20.4375 12.9375 Z M 20.4375 12.9375 "/>
<path style=" stroke:none;fill-rule:nonzero;fill:rgb(8.235294%,8.235294%,8.235294%);fill-opacity:1;" d="M 14.875 16 C 15.25 16.125 15.25 16.125 15.398438 16.382812 C 15.433594 16.460938 15.464844 16.542969 15.5 16.625 C 15.746094 16.625 15.996094 16.625 16.25 16.625 C 16.292969 16.417969 16.332031 16.210938 16.375 16 C 16.75 16.125 16.75 16.125 16.898438 16.382812 C 16.933594 16.460938 16.964844 16.542969 17 16.625 C 17.207031 16.625 17.414062 16.625 17.625 16.625 C 17.707031 16.417969 17.789062 16.210938 17.875 16 C 18 16 18.121094 16 18.25 16 C 18.210938 16.367188 18.175781 16.664062 17.984375 16.984375 C 17.550781 17.246094 17.0625 17.171875 16.585938 17.054688 C 16.515625 17.035156 16.445312 17.019531 16.375 17 C 16.25 17.0625 16.25 17.0625 16.125 17.125 C 15.695312 17.164062 15.695312 17.164062 15.25 17.125 C 15.007812 16.914062 15.007812 16.914062 14.875 16.625 C 14.851562 16.28125 14.851562 16.28125 14.875 16 Z M 14.875 16 "/>
<path style=" stroke:none;fill-rule:nonzero;fill:rgb(10.980392%,10.980392%,10.980392%);fill-opacity:1;" d="M 17.875 16 C 18 16 18.121094 16 18.25 16 C 18.171875 16.6875 18.171875 16.6875 17.945312 16.984375 C 17.75 17.125 17.75 17.125 17.5 17.125 C 17.625 16.753906 17.746094 16.382812 17.875 16 Z M 17.875 16 "/>
</g>
</svg>
