<?xml version="1.0" encoding="UTF-8"?>
<svg version="1.1" xmlns="http://www.w3.org/2000/svg" width="256" height="256">
<path d="M0 0 C0.19634033 0.73524902 0.39268066 1.47049805 0.5949707 2.22802734 C1.49925029 5.61077172 2.40586033 8.99288744 3.3125 12.375 C3.7755957 14.10943359 3.7755957 14.10943359 4.24804688 15.87890625 C4.55419922 17.01972656 4.86035156 18.16054688 5.17578125 19.3359375 C5.45333252 20.37282715 5.73088379 21.4097168 6.0168457 22.47802734 C7.28021241 27.00381032 8.64980714 31.49935713 10 36 C38.05 35.67 66.1 35.34 95 35 C97.97 27.08 100.94 19.16 104 11 C104.99 8.36 105.98 5.72 107 3 C108.32 2.67 109.64 2.34 111 2 C113.56641262 5.01801312 114.53545287 7.36070714 115.24609375 11.2421875 C115.44154785 12.29188721 115.63700195 13.34158691 115.83837891 14.4230957 C116.03608887 15.56222412 116.23379883 16.70135254 116.4375 17.875 C116.65067871 19.07535889 116.86385742 20.27571777 117.08349609 21.51245117 C120.60027922 41.77525862 123.07043434 62.06919438 124.6875 82.5625 C124.74834778 83.33099274 124.80919556 84.09948547 124.87188721 84.89126587 C126.57479661 106.73531138 127.24760328 128.58649023 127.61254883 150.48852539 C127.67372518 154.1250166 127.74798644 157.76112606 127.82492352 161.39731312 C127.88267067 164.23778173 127.9308717 167.07835603 127.976511 169.91904259 C128.010808 171.90431266 128.05515573 173.88940109 128.09977722 175.87446594 C128.18961488 182.30548035 127.96559159 187.85830666 126 194 C131.28 194 136.56 194 142 194 C144.00984147 189.98031706 143.51545154 185.36585391 143 181 C141.61292597 176.9533951 139.70296066 173.26659861 137.6875 169.5 C128.60091714 152.12410864 125.61637412 135.06782403 131 116 C133.70763791 108.81780639 137.34188063 101.29355361 144 97 C146.8125 96.9375 146.8125 96.9375 149 98 C151 100 151 100 151 102.1875 C149.99878932 105.00340503 149.17350315 106.05568903 147.1875 108.1875 C140.51194969 115.53702413 138.88311048 124.97448993 138.75 134.625 C138.72421875 135.73101562 138.6984375 136.83703125 138.671875 137.9765625 C139.14638488 148.22409929 143.25073594 157.45514554 147.625 166.5625 C148.61826612 168.66746012 149.61050358 170.77290604 150.6015625 172.87890625 C151.03807129 173.7922876 151.47458008 174.70566895 151.92431641 175.64672852 C154.60663672 181.5148369 154.92320752 187.7907996 153.5390625 194.1015625 C151.77371355 198.81608263 149.01300533 201.21546569 145 204 C141.69191071 205.13461866 138.54668238 205.1281881 135.0680542 205.13371277 C133.24706963 205.14011024 133.24706963 205.14011024 131.38929749 205.14663696 C130.04696652 205.14628746 128.70463558 205.14582593 127.36230469 205.14526367 C125.94614066 205.14825647 124.52997745 205.15165928 123.11381531 205.15544128 C119.26859197 205.16427482 115.42339088 205.16661917 111.57815838 205.16725707 C109.17397264 205.16796813 106.76979255 205.17010355 104.36560822 205.17275429 C95.97273907 205.18200672 87.5798858 205.18608945 79.18701172 205.18530273 C71.37313839 205.18470249 63.55933422 205.19524405 55.74547839 205.2110464 C49.03025067 205.22414121 42.3150455 205.22948579 35.59980512 205.22884732 C31.59217476 205.22859284 27.58460582 205.23141659 23.57698822 205.24202538 C19.8045861 205.25173864 16.03230369 205.25176351 12.25989723 205.24450874 C10.87967821 205.24346679 9.49945161 205.24580256 8.11924553 205.2518692 C-10.67159652 205.32907574 -10.67159652 205.32907574 -18 199 C-22.58085415 192.69603984 -22.55709684 186.29235738 -22.4609375 178.75390625 C-22.46088211 177.56658401 -22.46082672 176.37926178 -22.46076965 175.15596008 C-22.45365709 171.29104173 -22.4158161 167.42719859 -22.375 163.5625 C-22.3663157 162.22732047 -22.35847652 160.89213519 -22.35147095 159.5569458 C-22.23003457 136.67037387 -21.62153725 113.83227051 -20 91 C-19.94908203 90.27391541 -19.89816406 89.54783081 -19.84570312 88.79974365 C-18.01925762 63.07417202 -14.7758242 37.44104508 -9.8125 12.125 C-9.65789307 11.33504639 -9.50328613 10.54509277 -9.34399414 9.73120117 C-7.93998725 2.98113871 -7.93998725 2.98113871 -6 0 C-3.50907189 -1.24546405 -2.58919267 -0.7767578 0 0 Z " fill="#FCFCFC" transform="translate(80,26)"/>
<path d="M0 0 C0.19634033 0.73524902 0.39268066 1.47049805 0.5949707 2.22802734 C1.49925029 5.61077172 2.40586033 8.99288744 3.3125 12.375 C3.7755957 14.10943359 3.7755957 14.10943359 4.24804688 15.87890625 C4.55419922 17.01972656 4.86035156 18.16054688 5.17578125 19.3359375 C5.45333252 20.37282715 5.73088379 21.4097168 6.0168457 22.47802734 C7.28021241 27.00381032 8.64980714 31.49935713 10 36 C38.05 35.67 66.1 35.34 95 35 C97.97 27.08 100.94 19.16 104 11 C104.99 8.36 105.98 5.72 107 3 C108.32 2.67 109.64 2.34 111 2 C113.56641262 5.01801312 114.53545287 7.36070714 115.24609375 11.2421875 C115.44154785 12.29188721 115.63700195 13.34158691 115.83837891 14.4230957 C116.03608887 15.56222412 116.23379883 16.70135254 116.4375 17.875 C116.65067871 19.07535889 116.86385742 20.27571777 117.08349609 21.51245117 C120.60027922 41.77525862 123.07043434 62.06919438 124.6875 82.5625 C124.74834778 83.33099274 124.80919556 84.09948547 124.87188721 84.89126587 C126.57479661 106.73531138 127.24760328 128.58649023 127.61254883 150.48852539 C127.67372518 154.1250166 127.74798644 157.76112606 127.82492352 161.39731312 C127.88267067 164.23778173 127.9308717 167.07835603 127.976511 169.91904259 C128.010808 171.90431266 128.05515573 173.88940109 128.09977722 175.87446594 C128.18961488 182.30548035 127.96559159 187.85830666 126 194 C131.28 194 136.56 194 142 194 C144.00984147 189.98031706 143.51545154 185.36585391 143 181 C141.61292597 176.9533951 139.70296066 173.26659861 137.6875 169.5 C128.60091714 152.12410864 125.61637412 135.06782403 131 116 C133.70763791 108.81780639 137.34188063 101.29355361 144 97 C146.8125 96.9375 146.8125 96.9375 149 98 C151 100 151 100 151 102.1875 C149.99878932 105.00340503 149.17350315 106.05568903 147.1875 108.1875 C140.51194969 115.53702413 138.88311048 124.97448993 138.75 134.625 C138.72421875 135.73101562 138.6984375 136.83703125 138.671875 137.9765625 C139.14638488 148.22409929 143.25073594 157.45514554 147.625 166.5625 C148.61826612 168.66746012 149.61050358 170.77290604 150.6015625 172.87890625 C151.03807129 173.7922876 151.47458008 174.70566895 151.92431641 175.64672852 C154.60663672 181.5148369 154.92320752 187.7907996 153.5390625 194.1015625 C151.77371355 198.81608263 149.01300533 201.21546569 145 204 C141.69191071 205.13461866 138.54668238 205.1281881 135.0680542 205.13371277 C133.24706963 205.14011024 133.24706963 205.14011024 131.38929749 205.14663696 C130.04696652 205.14628746 128.70463558 205.14582593 127.36230469 205.14526367 C125.94614066 205.14825647 124.52997745 205.15165928 123.11381531 205.15544128 C119.26859197 205.16427482 115.42339088 205.16661917 111.57815838 205.16725707 C109.17397264 205.16796813 106.76979255 205.17010355 104.36560822 205.17275429 C95.97273907 205.18200672 87.5798858 205.18608945 79.18701172 205.18530273 C71.37313839 205.18470249 63.55933422 205.19524405 55.74547839 205.2110464 C49.03025067 205.22414121 42.3150455 205.22948579 35.59980512 205.22884732 C31.59217476 205.22859284 27.58460582 205.23141659 23.57698822 205.24202538 C19.8045861 205.25173864 16.03230369 205.25176351 12.25989723 205.24450874 C10.87967821 205.24346679 9.49945161 205.24580256 8.11924553 205.2518692 C-10.67159652 205.32907574 -10.67159652 205.32907574 -18 199 C-22.58085415 192.69603984 -22.55709684 186.29235738 -22.4609375 178.75390625 C-22.46088211 177.56658401 -22.46082672 176.37926178 -22.46076965 175.15596008 C-22.45365709 171.29104173 -22.4158161 167.42719859 -22.375 163.5625 C-22.3663157 162.22732047 -22.35847652 160.89213519 -22.35147095 159.5569458 C-22.23003457 136.67037387 -21.62153725 113.83227051 -20 91 C-19.94908203 90.27391541 -19.89816406 89.54783081 -19.84570312 88.79974365 C-18.01925762 63.07417202 -14.7758242 37.44104508 -9.8125 12.125 C-9.65789307 11.33504639 -9.50328613 10.54509277 -9.34399414 9.73120117 C-7.93998725 2.98113871 -7.93998725 2.98113871 -6 0 C-3.50907189 -1.24546405 -2.58919267 -0.7767578 0 0 Z M-4 22 C-6.79931896 41.28728623 -9.36678509 60.57333841 -11 80 C-11.10586426 81.2590918 -11.21172852 82.51818359 -11.32080078 83.81542969 C-13.14232938 107.0305375 -13.26343442 130.30399308 -13.36200333 153.57778549 C-13.37497986 156.05865055 -13.39500125 158.5393705 -13.4168396 161.02017212 C-13.45019806 164.96842561 -13.46237163 168.91621377 -13.45858192 172.86460114 C-13.46013951 174.34117134 -13.46840767 175.81775128 -13.48372459 177.29424286 C-13.50334541 179.33807631 -13.49522107 181.38211929 -13.48583984 183.42602539 C-13.48868988 184.57937881 -13.49153992 185.73273224 -13.49447632 186.92103577 C-12.89406109 190.65965164 -11.61528356 192.31355887 -9 195 C-6.57512291 196.21243854 -5.0302187 196.13107378 -2.32012939 196.14044189 C-0.83970657 196.14900711 -0.83970657 196.14900711 0.67062378 196.15774536 C2.30077927 196.15942215 2.30077927 196.15942215 3.96386719 196.16113281 C5.10544281 196.16609772 6.24701843 196.17106262 7.42318726 196.17617798 C11.21442255 196.19082921 15.005616 196.19760694 18.796875 196.203125 C21.42523195 196.20887451 24.05358888 196.21463227 26.6819458 196.22039795 C31.49409405 196.22997343 36.30623324 196.2358675 41.11838984 196.2388947 C48.19661737 196.24337194 55.27465145 196.26090263 62.35282016 196.2898953 C68.48560373 196.31414182 74.61830763 196.32184032 80.75113678 196.32357025 C83.35864565 196.32659941 85.96615366 196.33463675 88.57363129 196.34775543 C92.22208822 196.36479927 95.87007416 196.36293926 99.51855469 196.35644531 C101.13656479 196.37026749 101.13656479 196.37026749 102.78726196 196.3843689 C110.34139634 196.34806813 110.34139634 196.34806813 117 193 C119.03856529 189.49397537 119.25219644 186.39666337 119.25878906 182.39160156 C119.26499268 181.28148209 119.27119629 180.17136261 119.27758789 179.02760315 C119.27364014 177.82740036 119.26969238 176.62719757 119.265625 175.390625 C119.26844482 174.13269638 119.27126465 172.87476776 119.27416992 171.57872009 C119.27771915 168.17491947 119.27136442 164.77148739 119.25794983 161.367733 C119.24997987 159.24463658 119.24496736 157.12155024 119.24060059 154.9984436 C119.13615793 110.86198215 117.13578752 66.62561005 110 23 C109.34 23 108.68 23 108 23 C107.6443396 23.90093384 107.6443396 23.90093384 107.28149414 24.82006836 C106.21117428 27.5269469 105.13689225 30.23223541 104.0625 32.9375 C103.68931641 33.88302734 103.31613281 34.82855469 102.93164062 35.80273438 C102.39506836 37.15141602 102.39506836 37.15141602 101.84765625 38.52734375 C101.51773682 39.35999756 101.18781738 40.19265137 100.84790039 41.05053711 C100 43 100 43 99 44 C96.10856849 44.09523905 93.24107936 44.12553027 90.34936523 44.11352539 C88.9885231 44.11374443 88.9885231 44.11374443 87.60018921 44.1139679 C84.58630015 44.11326841 81.57247207 44.10547434 78.55859375 44.09765625 C76.47494033 44.0957922 74.39128646 44.09436824 72.30763245 44.09336853 C66.81176554 44.08954234 61.31592487 44.0797112 55.82006836 44.06866455 C50.21663773 44.0584526 44.61320287 44.05387137 39.00976562 44.04882812 C28.00649886 44.03808902 17.00325161 44.02101139 6 44 C5.19286948 42.40947983 4.38846392 40.81757665 3.58520508 39.22509766 C3.13695877 38.33875641 2.68871246 37.45241516 2.22688293 36.53921509 C0.78281049 33.55049429 -0.31868625 30.54048083 -1.3125 27.375 C-1.63863281 26.35148437 -1.96476562 25.32796875 -2.30078125 24.2734375 C-2.53152344 23.52320312 -2.76226562 22.77296875 -3 22 C-3.33 22 -3.66 22 -4 22 Z " fill="#030303" transform="translate(80,26)"/>
<path d="M0 0 C2.875 1 2.875 1 4.8125 2.6875 C6.27609489 5.87297124 5.86428968 7.67881323 4.875 11 C3.75 12.875 3.75 12.875 1.875 14 C-1.625 14.4375 -1.625 14.4375 -5.125 14 C-7.73821414 11.80827201 -8.06609015 10.35345908 -8.625 7 C-8.125 4 -8.125 4 -6 1.5625 C-3.125 0 -3.125 0 0 0 Z " fill="#0F0F0F" transform="translate(103.125,104)"/>
<path d="M0 0 C3.40524375 0.68104875 4.52547983 1.6479153 6.5 4.5 C6.92519574 7.96230815 7.13902633 10.3347167 5.4375 13.4375 C2.34506242 15.13335287 -0.05514741 14.93060657 -3.5 14.5 C-6.12541413 12.29803976 -6.4445448 10.88026421 -6.9375 7.5 C-6.5 4.5 -6.5 4.5 -4.8125 2.125 C-2.5 0.5 -2.5 0.5 0 0 Z " fill="#0A0A0A" transform="translate(163.5,103.5)"/>
<path d="M0 0 C3 1 3 1 4.1875 3.0625 C4.455625 3.701875 4.72375 4.34125 5 5 C6.98 5 8.96 5 11 5 C11.33 3.35 11.66 1.7 12 0 C15 1 15 1 16.1875 3.0625 C16.455625 3.701875 16.72375 4.34125 17 5 C18.65 5 20.3 5 22 5 C22.66 3.35 23.32 1.7 24 0 C24.99 0 25.98 0 27 0 C26.67470941 2.92761527 26.40430823 5.32615294 24.875 7.875 C21.40657498 9.95605501 17.49894895 9.3646092 13.6875 8.4375 C13.130625 8.293125 12.57375 8.14875 12 8 C11.01 8.495 11.01 8.495 10 9 C6.5625 9.3125 6.5625 9.3125 3 9 C1.0625 7.3125 1.0625 7.3125 0 5 C-0.1875 2.25 -0.1875 2.25 0 0 Z " fill="#151515" transform="translate(119,128)"/>
<path d="M0 0 C0.99 0 1.98 0 3 0 C2.38983051 5.49152542 2.38983051 5.49152542 0.5625 7.875 C-1 9 -1 9 -3 9 C-2.01 6.03 -1.02 3.06 0 0 Z " fill="#1C1C1C" transform="translate(143,128)"/>
</svg>
