<?xml version="1.0" encoding="UTF-8"?>
<svg version="1.1" xmlns="http://www.w3.org/2000/svg" width="1024" height="1024">
<path d="M0 0 C5.64184511 0.00020638 11.28368531 -0.00533716 16.92552805 -0.01005757 C27.94957614 -0.01831484 38.97361889 -0.02111019 49.99766982 -0.02166995 C58.975078 -0.0221476 67.95248443 -0.02421467 76.92989206 -0.02737057 C98.32696657 -0.03473754 119.72403938 -0.04089681 141.12111521 -0.04037201 C141.80330945 -0.04035644 142.4855037 -0.04034086 143.1883705 -0.04032481 C146.64477843 -0.04024172 150.10118637 -0.04014268 153.5575943 -0.0400401 C154.24385248 -0.04002015 154.93011065 -0.04000021 155.63716453 -0.03997966 C157.02494444 -0.03993922 158.41272436 -0.03989742 159.80050427 -0.03985427 C181.35446386 -0.03924258 202.90840768 -0.04673324 224.46236277 -0.06042683 C248.76990038 -0.07586405 273.07742499 -0.08437581 297.38496828 -0.08346361 C310.22024234 -0.08313382 323.05549861 -0.08578391 335.89076853 -0.09664166 C346.82551921 -0.10583353 357.76024404 -0.1078519 368.69499695 -0.10113224 C374.25354948 -0.09790977 379.81205267 -0.09765124 385.37060022 -0.10648549 C515.45205045 -0.29994823 515.45205045 -0.29994823 566.1332612 24.14538372 C566.91217722 24.52033977 567.69109324 24.89529583 568.49361277 25.28161418 C590.97601918 36.27555671 611.11093629 50.82628927 629.1332612 68.14538372 C630.02513132 68.99640666 630.02513132 68.99640666 630.93501902 69.864622 C639.83415143 78.39888539 647.82223117 87.22085758 655.1332612 97.14538372 C655.76457956 97.9855302 655.76457956 97.9855302 656.40865183 98.84264934 C686.75001988 139.25119941 697.86921399 184.63508032 701.8207612 234.27038372 C701.91203287 235.40466304 701.91203287 235.40466304 702.00514841 236.5618571 C704.20212866 264.36495585 704.28502164 292.14163156 704.27864492 320.01212251 C704.27843854 325.65396762 704.28398208 331.29580782 704.28870249 336.93765056 C704.29695976 347.96169865 704.29975511 358.9857414 704.30031487 370.00979233 C704.30079251 378.98720051 704.30285959 387.96460695 704.30601549 396.94201458 C704.31338246 418.33908908 704.31954173 439.73616189 704.31901693 461.13323772 C704.31900135 461.81543196 704.31898578 462.49762621 704.31896973 463.20049301 C704.31888664 466.65690094 704.3187876 470.11330888 704.31868502 473.56971681 C704.3186551 474.59910408 704.3186551 474.59910408 704.31862458 475.64928705 C704.31858414 477.03706696 704.31854234 478.42484687 704.31849919 479.81262678 C704.3178875 501.36658637 704.32537816 522.92053019 704.33907175 544.47448528 C704.35450897 568.7820229 704.36302073 593.0895475 704.36210853 617.39709079 C704.36177874 630.23236485 704.36442883 643.06762112 704.37528658 655.90289104 C704.38447845 666.83764172 704.38649682 677.77236656 704.37977716 688.70711946 C704.37655469 694.26567199 704.37629615 699.82417518 704.38513041 705.38272274 C704.57859315 835.46417296 704.57859315 835.46417296 680.1332612 886.14538372 C679.75830515 886.92429973 679.38334909 887.70321575 678.99703074 888.50573528 C668.00308821 910.98814169 653.45235565 931.1230588 636.1332612 949.14538372 C635.56591257 949.73996379 634.99856394 950.33454387 634.41402292 950.94714153 C625.87975953 959.84627394 617.05778733 967.83435368 607.1332612 975.14538372 C606.57316355 975.56626262 606.01306589 975.98714153 605.43599558 976.42077434 C565.02744551 1006.76214239 519.6435646 1017.8813365 470.0082612 1021.83288372 C468.87398188 1021.92415538 468.87398188 1021.92415538 467.71678782 1022.01727092 C439.91368907 1024.21425118 412.13701336 1024.29714415 384.26652241 1024.29076743 C378.6246773 1024.29056105 372.9828371 1024.29610459 367.34099436 1024.300825 C356.31694626 1024.30908227 345.29290352 1024.31187762 334.26885259 1024.31243738 C325.29144441 1024.31291503 316.31403797 1024.3149821 307.33663034 1024.318138 C285.93955584 1024.32550497 264.54248303 1024.33166424 243.1454072 1024.33113945 C242.46321295 1024.33112387 241.78101871 1024.33110829 241.07815191 1024.33109224 C237.62174398 1024.33100915 234.16533604 1024.33091011 230.70892811 1024.33080753 C230.02266993 1024.33078758 229.33641175 1024.33076764 228.62935787 1024.33074709 C227.24157796 1024.33070665 225.85379805 1024.33066485 224.46601814 1024.3306217 C202.91205854 1024.33001001 181.35811473 1024.33750067 159.80415964 1024.35119426 C135.49662202 1024.36663148 111.18909742 1024.37514324 86.88155413 1024.37423104 C74.04628007 1024.37390125 61.2110238 1024.37655134 48.37575388 1024.38740909 C37.4410032 1024.39660096 26.50627836 1024.39861933 15.57152545 1024.39189967 C10.01297293 1024.3886772 4.45446974 1024.38841867 -1.10407782 1024.39725292 C-131.18552804 1024.59071566 -131.18552804 1024.59071566 -181.8667388 1000.14538372 C-182.64565481 999.77042766 -183.42457083 999.39547161 -184.22709036 999.00915325 C-206.70949677 988.01521072 -226.84441388 973.46447816 -244.8667388 956.14538372 C-245.46131887 955.57803508 -246.05589895 955.01068645 -246.66849661 954.42614543 C-255.56762902 945.89188204 -263.55570876 937.06990985 -270.8667388 927.14538372 C-271.2876177 926.58528606 -271.70849661 926.0251884 -272.14212942 925.44811809 C-302.48349747 885.03956802 -313.60269158 839.65568711 -317.5542388 790.02038372 C-317.64551046 788.88610439 -317.64551046 788.88610439 -317.738626 787.72891033 C-319.93560626 759.92581158 -320.01849923 732.14913587 -320.01212251 704.27864492 C-320.01191613 698.63679981 -320.01745967 692.99495961 -320.02218008 687.35311687 C-320.03043735 676.32906878 -320.0332327 665.30502603 -320.03379246 654.2809751 C-320.03427011 645.30356692 -320.03633718 636.32616048 -320.03949308 627.34875286 C-320.04686005 605.95167835 -320.05301933 584.55460554 -320.05249453 563.15752971 C-320.05247895 562.47533547 -320.05246337 561.79314122 -320.05244732 561.09027442 C-320.05236423 557.63386649 -320.05226519 554.17745855 -320.05216261 550.72105062 C-320.05214266 550.03479244 -320.05212272 549.34853427 -320.05210217 548.64148039 C-320.05206173 547.25370047 -320.05201993 545.86592056 -320.05197678 544.47814065 C-320.05136509 522.92418106 -320.05885575 501.37023724 -320.07254934 479.81628215 C-320.08798656 455.50874454 -320.09649832 431.20121993 -320.09558612 406.89367664 C-320.09525633 394.05840258 -320.09790642 381.22314631 -320.10876417 368.38787639 C-320.11795604 357.45312571 -320.11997441 346.51840088 -320.11325475 335.58364797 C-320.11003228 330.02509544 -320.10977375 324.46659225 -320.118608 318.9080447 C-320.31207074 188.82659447 -320.31207074 188.82659447 -295.8667388 138.14538372 C-295.49178274 137.3664677 -295.11682669 136.58755168 -294.73050833 135.78503215 C-283.7365658 113.30262574 -269.18583324 93.16770863 -251.8667388 75.14538372 C-251.29939016 74.55080364 -250.73204153 73.95622356 -250.14750051 73.3436259 C-241.61323712 64.44449349 -232.79126493 56.45641375 -222.8667388 49.14538372 C-222.30664114 48.72450481 -221.74654348 48.3036259 -221.16947317 47.86999309 C-180.7609231 17.52862504 -135.37704219 6.40943093 -85.7417388 2.45788372 C-84.98555258 2.39703594 -84.22936636 2.33618816 -83.45026541 2.27349651 C-55.64716667 0.07651626 -27.87049095 -0.00637672 0 0 Z " fill="#FAFAFA" transform="translate(319.86673879623413,-0.14538371562957764)"/>
<path d="M0 0 C1.19532927 -0.00467997 1.19532927 -0.00467997 2.4148066 -0.00945449 C5.07668287 -0.01741124 7.73832968 -0.01111961 10.40020752 -0.00482178 C12.31275058 -0.00753293 14.2252926 -0.01109456 16.13783264 -0.01544189 C21.33069511 -0.02456075 26.52347811 -0.02102173 31.71634197 -0.01468372 C37.16518553 -0.00961236 42.61402238 -0.01431915 48.06286621 -0.01745605 C57.22594417 -0.02109609 66.38898992 -0.01629948 75.55206299 -0.0067749 C86.10712434 0.00407075 96.66210819 0.00061262 107.21716762 -0.01042771 C116.30200252 -0.01954621 125.38681426 -0.02076252 134.47165227 -0.01555037 C139.88690408 -0.01245061 145.30211967 -0.01196517 150.71736908 -0.01862335 C155.8227666 -0.02446138 160.92806592 -0.02028359 166.03345299 -0.00883484 C167.89323706 -0.00622071 169.75302958 -0.00689668 171.61281013 -0.01136017 C212.37671731 -0.10006267 251.85326728 9.43801418 281.67071533 38.56646729 C304.89014341 62.09154972 317.27637537 96.5067309 317.92071533 129.25396729 C317.94649658 130.23478271 317.97227783 131.21559814 317.99884033 132.22613525 C319.32329758 188.25895482 305.47194553 242.69720303 271.42071533 287.69146729 C270.99943359 288.25349854 270.57815186 288.81552979 270.144104 289.39459229 C269.11931597 290.7209614 268.02581476 291.9937289 266.92071533 293.25396729 C266.26071533 293.25396729 265.60071533 293.25396729 264.92071533 293.25396729 C264.68868408 293.80955322 264.45665283 294.36513916 264.21759033 294.93756104 C258.6440628 304.89268703 246.95897228 312.59988515 237.92071533 319.25396729 C237.36496826 319.67001221 236.80922119 320.08605713 236.2366333 320.51470947 C214.00594566 336.97076883 187.10022756 346.99719114 160.11431885 352.06427002 C158.0905738 352.44478433 156.06909961 352.8359736 154.04766846 353.22857666 C142.10104417 355.51528792 130.68524526 356.40229612 118.55262375 356.45319748 C115.96232564 356.46510862 113.3721853 356.48458702 110.7819519 356.50631714 C103.42363747 356.56755454 96.06534669 356.62202791 88.70684814 356.65533447 C84.19000334 356.67631892 79.67345998 356.71163719 75.15678787 356.75609207 C73.44330012 356.77020499 71.7297592 356.77896382 70.01621628 356.78214645 C67.6186652 356.78707505 65.22191182 356.81027741 62.82452393 356.83746338 C62.12512192 356.83445724 61.42571991 356.83145111 60.7051239 356.82835388 C54.3345293 356.93521196 49.80404387 358.49619399 45.10821533 362.87896729 C39.97172453 369.76431585 40.08633919 380.52275916 38.91870117 388.80667114 C37.05254053 402.01341702 34.98461665 415.1663474 32.65582275 428.300354 C31.59754712 434.27536738 30.61178846 440.24591151 29.76177979 446.25396729 C26.25760806 470.65524326 15.44912915 491.81213015 -4.57928467 506.81646729 C-24.49997616 520.12795739 -44.58046322 522.48424104 -67.9574585 522.60406494 C-70.32865187 522.62065467 -72.69979464 522.64798386 -75.07073975 522.68609619 C-78.51004667 522.74098763 -81.94819195 522.76275267 -85.38787842 522.77740479 C-86.4401915 522.80007416 -87.49250458 522.82274353 -88.57670593 522.84609985 C-96.19050057 522.82435373 -101.11201492 521.11209143 -106.59953308 515.77554321 C-112.54552385 509.09736212 -112.53373069 502.78209771 -112.07928467 494.25396729 C-111.69304375 490.58345289 -111.10395884 486.96968457 -110.46209717 483.33599854 C-110.20325996 481.79558899 -110.20325996 481.79558899 -109.93919373 480.22406006 C-109.56504725 478.0014569 -109.18669543 475.77955832 -108.80453491 473.55831909 C-107.75630923 467.46044777 -106.74139194 461.35701527 -105.72381592 455.25396729 C-105.50837631 453.96589676 -105.29293671 452.67782623 -105.07096863 451.35072327 C-102.64713984 436.81388389 -100.43001365 422.24577837 -98.21299362 407.67623901 C-97.26054598 401.42035142 -96.30386497 395.1651104 -95.34490967 388.91021729 C-95.24384855 388.25101791 -95.14278744 387.59181854 -95.03866386 386.91264343 C-93.38340852 376.12768162 -91.63992069 365.36197553 -89.80783081 354.60583496 C-86.99767516 338.07518081 -84.42350457 321.50705035 -81.82928467 304.94146729 C-81.5903022 303.41569 -81.35131904 301.88991282 -81.11233521 300.36413574 C-80.75211014 298.06414063 -80.39189326 295.76414424 -80.0316782 293.46414757 C-79.79069072 291.92543449 -79.54969754 290.38672231 -79.30869865 288.84801102 C-79.06676725 287.30329395 -78.82486086 285.75857297 -78.5829792 284.21384811 C-76.0625311 268.11947404 -73.51221769 252.02992059 -70.95428467 235.94146729 C-70.13515707 230.78653799 -69.31621042 225.63157994 -68.49725342 220.47662354 C-68.29739334 219.21870499 -68.09753326 217.96078644 -67.89161682 216.66474915 C-65.67894961 202.73684973 -63.46961776 188.80842566 -61.26678467 174.87896729 C-61.07730255 173.68110596 -60.88782043 172.48324463 -60.69259644 171.24908447 C-58.54343198 157.65363446 -56.42536599 144.05468184 -54.39178467 130.44146729 C-52.63908195 118.71476739 -50.73416811 107.01923882 -48.76461792 95.32751465 C-46.71642699 83.1678648 -44.74596854 70.99754294 -42.82928467 58.81646729 C-42.70449738 58.02390533 -42.57971008 57.23134338 -42.45114136 56.4147644 C-42.20893302 54.87517652 -41.96706255 53.33553544 -41.72555542 51.7958374 C-41.49524516 50.32888434 -41.263965 48.86208318 -41.03164673 47.39544678 C-40.51358279 44.10983948 -40.02097137 40.82614012 -39.57171631 37.53009033 C-37.92384005 25.62403549 -34.05737605 15.53117267 -24.34490967 7.80084229 C-21.06382518 5.56065357 -17.78072306 3.70017726 -14.07928467 2.25396729 C-13.21426708 1.91293095 -12.3492495 1.57189461 -11.45801926 1.22052383 C-7.57641822 0.11011199 -3.99824342 -0.02421127 0 0 Z " fill="#3388FE" transform="translate(409.07928466796875,255.74603271484375)"/>
<path d="M0 0 C40.26 0 80.52 0 122 0 C120.84895196 16.11467262 120.84895196 16.11467262 119.94921875 22.94921875 C119.85054504 23.7216391 119.75187134 24.49405945 119.65020752 25.28988647 C119.33360529 27.7563359 119.0109055 30.22193419 118.6875 32.6875 C118.46227824 34.42569433 118.23709975 36.16389428 118.01196289 37.90209961 C116.74373183 47.63608323 115.39966183 57.35551328 113.9375 67.0625 C113.70051392 68.64925537 113.70051392 68.64925537 113.45874023 70.26806641 C112.79288305 74.7241091 112.12643309 79.17989347 111.43994141 83.6328125 C105.72136639 121.05292068 105.19213175 156.66094234 127.875 188.75 C141.46579566 206.56672444 157.96727763 220.82584781 179 229 C180.33998047 229.53367187 180.33998047 229.53367187 181.70703125 230.078125 C197.10615117 235.72376678 213.00633251 236.4477944 229.21923828 236.43237305 C231.17261362 236.44141559 233.12598333 236.45174879 235.0793457 236.46325684 C240.32192973 236.49056059 245.56440534 236.50007469 250.80705118 236.50611091 C256.30833035 236.51556473 261.8095307 236.54177314 267.3107605 236.56611633 C277.70119002 236.60959377 288.09160408 236.63825547 298.48209655 236.66143972 C310.32272152 236.68859258 322.16326646 236.73249742 334.00383401 236.77772844 C358.3358458 236.87030574 382.66788268 236.942109 407 237 C406.6830148 239.54336186 406.3657786 242.086692 406.04840088 244.63000488 C405.959499 245.34352741 405.87059711 246.05704994 405.77900124 246.79219437 C405.04291878 252.6882996 404.27279338 258.57941417 403.484375 264.46875 C403.20253211 266.58600496 402.92079838 268.70327445 402.63916016 270.82055664 C402.4940802 271.91014679 402.34900024 272.99973694 402.19952393 274.12234497 C399.31119329 295.82482607 396.5216245 317.53727294 393.86621094 339.26953125 C393.74730499 340.23527573 393.62839905 341.2010202 393.50588989 342.19602966 C393.28490491 343.99106658 393.06591533 345.78635078 392.84933472 347.58192444 C392.75161774 348.37352463 392.65390076 349.16512482 392.55322266 349.98071289 C392.46996735 350.66468643 392.38671204 351.34865997 392.30093384 352.05335999 C391.98803161 354.07741948 391.50799259 356.0170473 391 358 C366.3290155 358.07032314 341.6580462 358.12310174 316.98698139 358.15543652 C305.52977952 358.17085435 294.07264021 358.19184576 282.61547852 358.22631836 C272.62038047 358.25637733 262.62532778 358.27561186 252.63018578 358.28226548 C247.34604948 358.28615 242.06204281 358.29517103 236.77794838 358.31719017 C231.78669764 358.33781707 226.79562778 358.34378191 221.80433846 358.33932304 C219.98934693 358.3401367 218.17434824 358.34594416 216.35939407 358.35761642 C198.49842445 358.46667899 181.10495459 356.16313087 163.75 351.9375 C162.53546143 351.64222412 161.32092285 351.34694824 160.06958008 351.04272461 C141.84832724 346.39762672 124.51556923 338.93751327 108 330 C106.85015625 329.38898438 105.7003125 328.77796875 104.515625 328.1484375 C89.83724751 320.07865078 76.49366513 310.1188409 64 299 C63.49130371 298.55301758 62.98260742 298.10603516 62.45849609 297.64550781 C45.09318834 282.3552305 30.89518481 264.64799379 19.06835938 244.78564453 C18.10029969 243.16763984 17.10627559 241.56523994 16.109375 239.96484375 C11.29239339 232.07757881 7.55827788 223.79792565 3.97314453 215.29833984 C3.35078458 213.82847116 2.71975787 212.3622229 2.07763672 210.90087891 C-4.24881448 196.48237488 -7.77440034 181.37162046 -11 166 C-11.1964209 165.0836377 -11.3928418 164.16727539 -11.59521484 163.22314453 C-22.28722205 110.82719341 -7.56055516 51.41177506 0 0 Z " fill="#B3D1FA" transform="translate(86,594)"/>
<path d="M0 0 C24.13217803 -0.07034899 48.2643405 -0.12311424 72.39660072 -0.15543652 C83.603791 -0.17084894 94.81091725 -0.19182977 106.01806641 -0.22631836 C115.79599726 -0.25639415 125.57388171 -0.27561577 135.35185754 -0.28226548 C140.52033197 -0.28614721 145.68867372 -0.29514982 150.85710526 -0.31719017 C192.3090399 -0.4871269 192.3090399 -0.4871269 210 3 C211.17665222 3.23108963 212.35330444 3.46217926 213.56561279 3.70027161 C216.12909294 4.23410798 218.65408094 4.83968134 221.1875 5.5 C222.48868774 5.82581055 222.48868774 5.82581055 223.81616211 6.15820312 C225.4872497 6.57907661 227.15705461 7.00509415 228.82519531 7.4375 C230.65811051 7.91157236 232.49648028 8.36448232 234.3359375 8.8125 C241.19305821 10.54151611 247.52182683 13.19251227 254 16 C255.91647968 16.7712981 257.83314794 17.54212779 259.75 18.3125 C284.66072707 28.7379803 307.96995465 43.33947823 327.2734375 62.30419922 C328.51717504 63.52577741 329.76807036 64.74008324 331.0234375 65.94970703 C373.51465787 106.89736096 401.18402238 164.12855412 402.49594116 223.6663208 C402.53389319 226.29852201 402.55274272 228.93004546 402.5625 231.5625 C402.56679016 232.49441162 402.57108032 233.42632324 402.57550049 234.38647461 C402.58476838 257.63033469 399.33898985 280.38937087 395.96679688 303.34277344 C395.00460673 309.91196921 394.11023108 316.48911474 393.234375 323.0703125 C392.95981044 325.1276058 392.6852339 327.18489751 392.41064453 329.2421875 C392.21417328 330.71510254 392.21417328 330.71510254 392.01373291 332.21777344 C391.40453353 336.7738081 390.78850446 341.32884251 390.1640625 345.8828125 C390.06019226 346.65303741 389.95632202 347.42326233 389.8493042 348.21682739 C389.38935713 351.55198884 388.81811486 354.72754055 388 358 C347.74 358 307.48 358 266 358 C267.12547331 346.74526691 267.12547331 346.74526691 267.66088867 342.43823242 C267.84225372 340.97298378 267.84225372 340.97298378 268.02728271 339.47813416 C268.2206723 337.93241478 268.2206723 337.93241478 268.41796875 336.35546875 C268.55583801 335.2484108 268.69370728 334.14135284 268.83575439 333.00074768 C269.13165704 330.62806637 269.42819358 328.25546404 269.72531128 325.88293457 C270.19384277 322.13678628 270.65865425 318.39018783 271.12329102 314.64355469 C272.59316436 302.84409582 274.10253978 291.05467551 275.796875 279.28515625 C281.71773065 238.00606185 283.42649241 201.75779965 258.13671875 166.39453125 C245.3963166 149.80299305 229.88037941 138.69402214 211 130 C210.09378906 129.5771875 209.18757812 129.154375 208.25390625 128.71875 C196.89368132 123.79412047 184.0287956 121.85800551 171.71730042 121.84178162 C170.91094318 121.83684364 170.10458594 121.83190566 169.27379364 121.82681805 C166.58690931 121.81152823 163.90004871 121.80310566 161.21313477 121.79467773 C159.28109023 121.78509251 157.34904776 121.77508205 155.41700745 121.76467896 C150.182065 121.73769369 144.94711359 121.71664966 139.71214032 121.69667697 C134.23751531 121.674778 128.7629177 121.64740847 123.28831482 121.62062073 C112.92585092 121.57074668 102.56337176 121.52578826 92.20087808 121.48259836 C80.40164765 121.43318076 68.60244471 121.37827942 56.8032409 121.32291877 C32.53551961 121.20917992 8.26777192 121.10232329 -16 121 C-16.03641166 115.66630709 -15.80454489 110.70204679 -15.01171875 105.40625 C-14.90785355 104.69762817 -14.80398834 103.98900635 -14.69697571 103.25891113 C-14.36587335 101.00510348 -14.02725045 98.75251872 -13.6875 96.5 C-12.04737854 85.52067449 -10.54230128 74.53506949 -9.18415833 63.51705933 C-7.80647543 52.36270564 -6.33223984 41.22178009 -4.83789062 30.08251953 C-4.36516546 26.55154181 -3.89747298 23.01991638 -3.4296875 19.48828125 C-3.12791135 17.23433385 -2.82583992 14.98042596 -2.5234375 12.7265625 C-2.38489349 11.67473785 -2.24634949 10.62291321 -2.10360718 9.53921509 C-1.97322052 8.57575165 -1.84283386 7.61228821 -1.70849609 6.61962891 C-1.59541107 5.77268463 -1.48232605 4.92574036 -1.36581421 4.0531311 C-1 2 -1 2 0 0 Z " fill="#B7D4FD" transform="translate(550,72)"/>
<path d="M0 0 C1.66290573 -0.00945648 1.66290573 -0.00945648 3.35940552 -0.019104 C5.15159012 -0.01303131 5.15159012 -0.01303131 6.97998047 -0.00683594 C8.83367752 -0.00970612 8.83367752 -0.00970612 10.724823 -0.01263428 C14.01227837 -0.01434421 17.29954483 -0.0063013 20.5869751 0.00488281 C23.90029329 0.01132132 27.21355489 -0.0039789 30.52685547 -0.01464844 C33.07373146 -0.01332577 35.62060716 -0.01076116 38.16748047 -0.00683594 C39.35012482 -0.0108844 40.53276917 -0.01493286 41.75125122 -0.019104 C57.76072362 0.07041028 72.44128634 4.17522095 84.47216797 15.25878906 C92.68017242 24.87730982 95.10190612 36.38963987 94.75732422 48.80957031 C93.46065065 64.49399167 89.37430521 78.77348558 79.47216797 91.25878906 C78.96169922 91.94457031 78.45123047 92.63035156 77.92529297 93.33691406 C66.58054949 107.60208655 48.73309883 114.64211313 31.15509033 116.98400879 C22.71724224 117.84819861 14.2021846 117.73696103 5.72973633 117.70483398 C2.25202353 117.69620809 -1.22410382 117.72538359 -4.70166016 117.75683594 C-6.92887321 117.75844556 -9.15608915 117.757875 -11.38330078 117.75488281 C-12.41456589 117.76611679 -13.44583099 117.77735077 -14.50834656 117.78892517 C-20.49642352 117.73075819 -23.96047908 117.24058395 -28.52783203 113.25878906 C-32.51321716 107.97871667 -30.22438835 99.46748537 -29.52783203 93.25878906 C-28.98347356 89.44075437 -28.3577512 85.63762087 -27.72705078 81.83300781 C-27.36460644 79.60942236 -27.00297957 77.38570353 -26.64208984 75.16186523 C-26.45706909 74.02268646 -26.27204834 72.88350769 -26.0814209 71.70980835 C-25.18748524 66.13710019 -24.34088963 60.55735513 -23.49267578 54.97753906 C-22.98672529 51.67747285 -22.47984575 48.37755023 -21.97290039 45.07763672 C-21.63019952 42.83681149 -21.29009289 40.59558819 -20.95239258 38.35400391 C-20.45229161 35.03985216 -19.9421539 31.72737403 -19.43017578 28.41503906 C-19.28321762 27.42435425 -19.13625946 26.43366943 -18.98484802 25.41296387 C-17.59454638 16.52729891 -16.03309492 8.76405195 -9.52783203 2.25878906 C-6.30421806 0.22659437 -3.77811456 0.00617499 0 0 Z " fill="#FAFAFB" transform="translate(503.52783203125,379.7412109375)"/>
</svg>
