<?xml version="1.0" encoding="UTF-8"?>
<svg xmlns="http://www.w3.org/2000/svg" xmlns:xlink="http://www.w3.org/1999/xlink" width="32px" height="32px" viewBox="0 0 32 32" version="1.1">
<g id="surface1">
<path style=" stroke:none;fill-rule:nonzero;fill:rgb(98.039216%,98.039216%,98.039216%);fill-opacity:1;" d="M 9.996094 -0.00390625 C 10.171875 -0.00390625 10.347656 -0.00390625 10.523438 -0.00390625 C 10.871094 -0.00390625 11.214844 -0.00390625 11.558594 -0.00390625 C 11.839844 -0.00390625 12.121094 -0.00390625 12.398438 -0.00390625 C 13.070312 -0.00390625 13.738281 -0.00390625 14.40625 -0.00390625 C 14.425781 -0.00390625 14.449219 -0.00390625 14.46875 -0.00390625 C 14.578125 -0.00390625 14.6875 -0.00390625 14.792969 -0.00390625 C 14.816406 -0.00390625 14.835938 -0.00390625 14.859375 -0.00390625 C 14.902344 -0.00390625 14.945312 -0.00390625 14.988281 -0.00390625 C 15.664062 -0.00390625 16.335938 -0.0078125 17.011719 -0.0078125 C 17.769531 -0.0078125 18.53125 -0.0078125 19.289062 -0.0078125 C 19.691406 -0.0078125 20.089844 -0.0078125 20.492188 -0.0078125 C 20.835938 -0.0078125 21.175781 -0.0078125 21.515625 -0.0078125 C 21.691406 -0.0078125 21.863281 -0.0078125 22.039062 -0.0078125 C 26.105469 -0.015625 26.105469 -0.015625 27.6875 0.75 C 27.710938 0.761719 27.734375 0.773438 27.761719 0.785156 C 28.464844 1.128906 29.09375 1.582031 29.65625 2.125 C 29.683594 2.152344 29.683594 2.152344 29.710938 2.179688 C 29.992188 2.445312 30.242188 2.722656 30.46875 3.03125 C 30.488281 3.058594 30.488281 3.058594 30.507812 3.085938 C 31.457031 4.347656 31.804688 5.765625 31.925781 7.316406 C 31.929688 7.351562 31.929688 7.351562 31.933594 7.386719 C 32.003906 8.257812 32.003906 9.125 32.003906 9.996094 C 32.003906 10.171875 32.003906 10.347656 32.003906 10.523438 C 32.003906 10.871094 32.003906 11.214844 32.003906 11.558594 C 32.003906 11.839844 32.003906 12.121094 32.003906 12.398438 C 32.003906 13.070312 32.003906 13.738281 32.003906 14.40625 C 32.003906 14.425781 32.003906 14.449219 32.003906 14.46875 C 32.003906 14.578125 32.003906 14.6875 32.003906 14.792969 C 32.003906 14.828125 32.003906 14.828125 32.003906 14.859375 C 32.003906 14.902344 32.003906 14.945312 32.003906 14.988281 C 32.003906 15.664062 32.007812 16.335938 32.007812 17.011719 C 32.007812 17.769531 32.007812 18.53125 32.007812 19.289062 C 32.007812 19.691406 32.007812 20.089844 32.007812 20.492188 C 32.007812 20.835938 32.007812 21.175781 32.007812 21.515625 C 32.007812 21.691406 32.007812 21.863281 32.007812 22.039062 C 32.015625 26.105469 32.015625 26.105469 31.25 27.6875 C 31.238281 27.710938 31.226562 27.734375 31.214844 27.761719 C 30.871094 28.464844 30.417969 29.09375 29.875 29.65625 C 29.855469 29.675781 29.839844 29.695312 29.820312 29.710938 C 29.554688 29.992188 29.277344 30.242188 28.96875 30.46875 C 28.953125 30.480469 28.933594 30.496094 28.914062 30.507812 C 27.652344 31.457031 26.234375 31.804688 24.683594 31.929688 C 24.648438 31.929688 24.648438 31.929688 24.613281 31.933594 C 23.742188 32.003906 22.875 32.003906 22.003906 32.003906 C 21.828125 32.003906 21.652344 32.003906 21.476562 32.003906 C 21.128906 32.003906 20.785156 32.003906 20.441406 32.003906 C 20.160156 32.003906 19.878906 32.003906 19.601562 32.003906 C 18.929688 32.003906 18.261719 32.003906 17.59375 32.003906 C 17.574219 32.003906 17.550781 32.003906 17.53125 32.003906 C 17.421875 32.003906 17.3125 32.003906 17.207031 32.003906 C 17.183594 32.003906 17.164062 32.003906 17.140625 32.003906 C 17.097656 32.003906 17.054688 32.003906 17.011719 32.003906 C 16.335938 32.003906 15.664062 32.007812 14.988281 32.007812 C 14.230469 32.007812 13.46875 32.007812 12.710938 32.007812 C 12.308594 32.007812 11.910156 32.007812 11.507812 32.007812 C 11.164062 32.007812 10.824219 32.007812 10.484375 32.007812 C 10.308594 32.007812 10.136719 32.007812 9.960938 32.007812 C 5.894531 32.015625 5.894531 32.015625 4.3125 31.25 C 4.289062 31.238281 4.265625 31.226562 4.238281 31.214844 C 3.535156 30.871094 2.90625 30.417969 2.34375 29.875 C 2.324219 29.855469 2.304688 29.839844 2.289062 29.820312 C 2.007812 29.554688 1.757812 29.277344 1.53125 28.96875 C 1.519531 28.953125 1.503906 28.933594 1.492188 28.914062 C 0.542969 27.652344 0.195312 26.234375 0.0703125 24.683594 C 0.0703125 24.648438 0.0703125 24.648438 0.0664062 24.613281 C -0.00390625 23.742188 -0.00390625 22.875 -0.00390625 22.003906 C -0.00390625 21.828125 -0.00390625 21.652344 -0.00390625 21.476562 C -0.00390625 21.128906 -0.00390625 20.785156 -0.00390625 20.441406 C -0.00390625 20.160156 -0.00390625 19.878906 -0.00390625 19.601562 C -0.00390625 18.929688 -0.00390625 18.261719 -0.00390625 17.59375 C -0.00390625 17.574219 -0.00390625 17.550781 -0.00390625 17.53125 C -0.00390625 17.421875 -0.00390625 17.3125 -0.00390625 17.207031 C -0.00390625 17.183594 -0.00390625 17.164062 -0.00390625 17.140625 C -0.00390625 17.097656 -0.00390625 17.054688 -0.00390625 17.011719 C -0.00390625 16.335938 -0.0078125 15.664062 -0.0078125 14.988281 C -0.0078125 14.230469 -0.0078125 13.46875 -0.0078125 12.710938 C -0.0078125 12.308594 -0.0078125 11.910156 -0.0078125 11.507812 C -0.0078125 11.164062 -0.0078125 10.824219 -0.0078125 10.484375 C -0.0078125 10.308594 -0.0078125 10.136719 -0.0078125 9.960938 C -0.015625 5.894531 -0.015625 5.894531 0.75 4.3125 C 0.761719 4.289062 0.773438 4.265625 0.785156 4.238281 C 1.128906 3.535156 1.582031 2.90625 2.125 2.34375 C 2.144531 2.324219 2.160156 2.304688 2.179688 2.289062 C 2.445312 2.007812 2.722656 1.757812 3.03125 1.53125 C 3.046875 1.519531 3.066406 1.503906 3.085938 1.492188 C 4.347656 0.542969 5.765625 0.195312 7.316406 0.0742188 C 7.339844 0.0703125 7.363281 0.0703125 7.386719 0.0664062 C 8.257812 -0.00390625 9.125 -0.00390625 9.996094 -0.00390625 Z M 9.996094 -0.00390625 "/>
<path style=" stroke:none;fill-rule:nonzero;fill:rgb(20%,53.333336%,99.607843%);fill-opacity:1;" d="M 12.785156 7.992188 C 12.820312 7.992188 12.820312 7.992188 12.859375 7.992188 C 12.941406 7.992188 13.027344 7.992188 13.109375 7.992188 C 13.167969 7.992188 13.226562 7.992188 13.289062 7.992188 C 13.449219 7.992188 13.613281 7.992188 13.773438 7.992188 C 13.945312 7.992188 14.117188 7.992188 14.285156 7.992188 C 14.570312 7.992188 14.859375 7.992188 15.144531 7.992188 C 15.472656 7.992188 15.804688 7.992188 16.132812 7.992188 C 16.417969 7.992188 16.703125 7.992188 16.984375 7.992188 C 17.15625 7.992188 17.324219 7.992188 17.492188 7.992188 C 17.652344 7.992188 17.8125 7.992188 17.972656 7.992188 C 18.03125 7.992188 18.089844 7.992188 18.148438 7.992188 C 19.421875 7.988281 20.652344 8.285156 21.585938 9.199219 C 22.3125 9.933594 22.699219 11.007812 22.71875 12.03125 C 22.71875 12.0625 22.71875 12.09375 22.722656 12.125 C 22.761719 13.875 22.328125 15.578125 21.265625 16.984375 C 21.253906 17 21.238281 17.015625 21.226562 17.035156 C 21.195312 17.078125 21.160156 17.117188 21.125 17.15625 C 21.105469 17.15625 21.082031 17.15625 21.0625 17.15625 C 21.054688 17.171875 21.046875 17.191406 21.039062 17.207031 C 20.867188 17.519531 20.5 17.761719 20.21875 17.96875 C 20.203125 17.980469 20.183594 17.996094 20.167969 18.007812 C 19.472656 18.523438 18.628906 18.835938 17.789062 18.992188 C 17.722656 19.007812 17.660156 19.019531 17.597656 19.03125 C 17.222656 19.101562 16.867188 19.128906 16.488281 19.132812 C 16.40625 19.132812 16.328125 19.132812 16.246094 19.132812 C 16.015625 19.136719 15.785156 19.136719 15.554688 19.136719 C 15.414062 19.136719 15.273438 19.140625 15.132812 19.140625 C 15.078125 19.140625 15.023438 19.140625 14.972656 19.140625 C 14.898438 19.140625 14.820312 19.140625 14.746094 19.144531 C 14.726562 19.144531 14.703125 19.144531 14.679688 19.144531 C 14.480469 19.144531 14.339844 19.195312 14.191406 19.332031 C 14.03125 19.546875 14.035156 19.882812 14 20.140625 C 13.941406 20.554688 13.878906 20.964844 13.804688 21.375 C 13.769531 21.5625 13.742188 21.75 13.714844 21.9375 C 13.605469 22.699219 13.265625 23.359375 12.640625 23.832031 C 12.019531 24.246094 11.390625 24.320312 10.660156 24.324219 C 10.585938 24.324219 10.511719 24.324219 10.4375 24.324219 C 10.332031 24.328125 10.222656 24.328125 10.117188 24.328125 C 10.082031 24.328125 10.050781 24.332031 10.015625 24.332031 C 9.777344 24.332031 9.625 24.277344 9.453125 24.109375 C 9.265625 23.902344 9.265625 23.703125 9.28125 23.4375 C 9.292969 23.324219 9.3125 23.210938 9.332031 23.097656 C 9.339844 23.046875 9.339844 23.046875 9.347656 23 C 9.359375 22.929688 9.371094 22.859375 9.382812 22.789062 C 9.417969 22.601562 9.449219 22.410156 9.480469 22.21875 C 9.488281 22.179688 9.492188 22.136719 9.5 22.097656 C 9.574219 21.640625 9.644531 21.1875 9.714844 20.730469 C 9.746094 20.535156 9.773438 20.339844 9.804688 20.144531 C 9.808594 20.125 9.808594 20.105469 9.8125 20.082031 C 9.867188 19.746094 9.921875 19.410156 9.976562 19.074219 C 10.066406 18.558594 10.144531 18.039062 10.226562 17.523438 C 10.234375 17.472656 10.242188 17.425781 10.25 17.378906 C 10.261719 17.304688 10.269531 17.234375 10.28125 17.164062 C 10.289062 17.113281 10.296875 17.066406 10.304688 17.019531 C 10.3125 16.96875 10.320312 16.921875 10.328125 16.875 C 10.40625 16.371094 10.488281 15.867188 10.566406 15.367188 C 10.59375 15.203125 10.617188 15.042969 10.644531 14.882812 C 10.648438 14.84375 10.65625 14.804688 10.664062 14.761719 C 10.730469 14.328125 10.800781 13.890625 10.867188 13.457031 C 10.875 13.417969 10.882812 13.382812 10.886719 13.34375 C 10.953125 12.917969 11.019531 12.492188 11.082031 12.070312 C 11.140625 11.703125 11.199219 11.335938 11.261719 10.972656 C 11.324219 10.589844 11.386719 10.210938 11.445312 9.832031 C 11.449219 9.804688 11.453125 9.78125 11.457031 9.753906 C 11.464844 9.707031 11.472656 9.660156 11.480469 9.609375 C 11.488281 9.566406 11.496094 9.519531 11.5 9.472656 C 11.519531 9.371094 11.53125 9.269531 11.546875 9.164062 C 11.597656 8.792969 11.71875 8.476562 12.023438 8.234375 C 12.125 8.164062 12.226562 8.109375 12.34375 8.0625 C 12.371094 8.050781 12.398438 8.042969 12.425781 8.03125 C 12.546875 7.996094 12.660156 7.992188 12.785156 7.992188 Z M 12.785156 7.992188 "/>
<path style=" stroke:none;fill-rule:nonzero;fill:rgb(70.19608%,81.960785%,98.039216%);fill-opacity:1;" d="M 2.6875 18.5625 C 3.945312 18.5625 5.203125 18.5625 6.5 18.5625 C 6.464844 19.066406 6.464844 19.066406 6.4375 19.28125 C 6.433594 19.304688 6.429688 19.328125 6.425781 19.351562 C 6.417969 19.429688 6.40625 19.507812 6.398438 19.585938 C 6.390625 19.636719 6.382812 19.691406 6.375 19.746094 C 6.335938 20.050781 6.292969 20.355469 6.25 20.65625 C 6.242188 20.707031 6.242188 20.707031 6.234375 20.757812 C 6.210938 20.898438 6.191406 21.035156 6.171875 21.175781 C 5.992188 22.34375 5.976562 23.457031 6.683594 24.460938 C 7.109375 25.019531 7.625 25.464844 8.28125 25.71875 C 8.324219 25.734375 8.324219 25.734375 8.367188 25.753906 C 8.847656 25.929688 9.34375 25.953125 9.851562 25.949219 C 9.910156 25.953125 9.972656 25.953125 10.035156 25.953125 C 10.199219 25.953125 10.363281 25.953125 10.523438 25.953125 C 10.695312 25.953125 10.867188 25.953125 11.039062 25.957031 C 11.367188 25.957031 11.691406 25.957031 12.015625 25.957031 C 12.386719 25.960938 12.753906 25.960938 13.125 25.960938 C 13.886719 25.964844 14.644531 25.96875 15.40625 25.96875 C 15.394531 26.046875 15.386719 26.128906 15.375 26.207031 C 15.375 26.230469 15.371094 26.25 15.367188 26.273438 C 15.34375 26.460938 15.320312 26.644531 15.296875 26.828125 C 15.289062 26.894531 15.277344 26.960938 15.269531 27.027344 C 15.265625 27.058594 15.261719 27.09375 15.257812 27.128906 C 15.164062 27.808594 15.078125 28.484375 14.996094 29.164062 C 14.992188 29.195312 14.988281 29.226562 14.984375 29.257812 C 14.976562 29.3125 14.972656 29.367188 14.964844 29.425781 C 14.960938 29.449219 14.957031 29.472656 14.953125 29.5 C 14.953125 29.519531 14.949219 29.542969 14.945312 29.5625 C 14.9375 29.628906 14.921875 29.6875 14.90625 29.75 C 14.136719 29.753906 13.363281 29.753906 12.59375 29.753906 C 12.234375 29.753906 11.878906 29.757812 11.519531 29.757812 C 11.207031 29.757812 10.894531 29.757812 10.582031 29.757812 C 10.417969 29.757812 10.25 29.757812 10.085938 29.761719 C 9.929688 29.761719 9.773438 29.761719 9.617188 29.761719 C 9.5625 29.761719 9.503906 29.761719 9.449219 29.761719 C 8.890625 29.765625 8.347656 29.691406 7.804688 29.5625 C 7.765625 29.550781 7.730469 29.542969 7.691406 29.53125 C 7.121094 29.386719 6.578125 29.15625 6.0625 28.875 C 6.027344 28.855469 5.992188 28.835938 5.953125 28.816406 C 5.496094 28.566406 5.078125 28.253906 4.6875 27.90625 C 4.671875 27.890625 4.65625 27.878906 4.640625 27.863281 C 4.097656 27.386719 3.652344 26.832031 3.285156 26.210938 C 3.253906 26.160156 3.222656 26.113281 3.191406 26.0625 C 3.039062 25.816406 2.921875 25.554688 2.8125 25.289062 C 2.792969 25.246094 2.773438 25.199219 2.753906 25.152344 C 2.554688 24.703125 2.445312 24.230469 2.34375 23.75 C 2.335938 23.722656 2.332031 23.691406 2.324219 23.664062 C 1.992188 22.027344 2.453125 20.167969 2.6875 18.5625 Z M 2.6875 18.5625 "/>
<path style=" stroke:none;fill-rule:nonzero;fill:rgb(71.764708%,83.137256%,99.215686%);fill-opacity:1;" d="M 17.1875 2.25 C 17.941406 2.246094 18.695312 2.246094 19.449219 2.246094 C 19.800781 2.246094 20.148438 2.242188 20.5 2.242188 C 20.804688 2.242188 21.113281 2.242188 21.417969 2.242188 C 21.578125 2.242188 21.742188 2.242188 21.902344 2.238281 C 23.195312 2.234375 23.195312 2.234375 23.75 2.34375 C 23.785156 2.351562 23.824219 2.359375 23.863281 2.367188 C 23.941406 2.382812 24.019531 2.402344 24.101562 2.421875 C 24.140625 2.433594 24.140625 2.433594 24.183594 2.441406 C 24.234375 2.457031 24.285156 2.46875 24.339844 2.484375 C 24.394531 2.496094 24.453125 2.511719 24.511719 2.523438 C 24.726562 2.578125 24.921875 2.664062 25.125 2.75 C 25.183594 2.773438 25.246094 2.796875 25.304688 2.820312 C 26.082031 3.148438 26.8125 3.605469 27.414062 4.195312 C 27.453125 4.234375 27.492188 4.273438 27.53125 4.3125 C 28.859375 5.589844 29.722656 7.378906 29.765625 9.238281 C 29.765625 9.320312 29.765625 9.402344 29.765625 9.484375 C 29.769531 9.515625 29.769531 9.542969 29.769531 9.574219 C 29.769531 10.300781 29.667969 11.011719 29.5625 11.730469 C 29.53125 11.933594 29.503906 12.140625 29.476562 12.347656 C 29.46875 12.410156 29.457031 12.472656 29.449219 12.539062 C 29.445312 12.585938 29.445312 12.585938 29.4375 12.632812 C 29.417969 12.773438 29.398438 12.917969 29.378906 13.058594 C 29.375 13.082031 29.375 13.105469 29.371094 13.132812 C 29.355469 13.234375 29.339844 13.335938 29.3125 13.4375 C 28.054688 13.4375 26.796875 13.4375 25.5 13.4375 C 25.535156 13.085938 25.535156 13.085938 25.550781 12.953125 C 25.558594 12.90625 25.558594 12.90625 25.5625 12.859375 C 25.570312 12.808594 25.570312 12.808594 25.574219 12.761719 C 25.578125 12.726562 25.585938 12.691406 25.589844 12.65625 C 25.597656 12.582031 25.605469 12.507812 25.617188 12.433594 C 25.632812 12.316406 25.644531 12.199219 25.660156 12.082031 C 25.707031 11.714844 25.753906 11.34375 25.804688 10.976562 C 25.992188 9.6875 26.042969 8.554688 25.253906 7.449219 C 24.855469 6.929688 24.371094 6.585938 23.78125 6.3125 C 23.753906 6.300781 23.726562 6.285156 23.695312 6.273438 C 23.339844 6.117188 22.9375 6.058594 22.554688 6.058594 C 22.527344 6.058594 22.503906 6.058594 22.476562 6.058594 C 22.394531 6.054688 22.308594 6.054688 22.226562 6.054688 C 22.164062 6.054688 22.105469 6.054688 22.042969 6.054688 C 21.878906 6.054688 21.71875 6.054688 21.554688 6.054688 C 21.382812 6.050781 21.210938 6.050781 21.039062 6.050781 C 20.714844 6.050781 20.394531 6.046875 20.070312 6.046875 C 19.699219 6.042969 19.332031 6.042969 18.960938 6.042969 C 18.203125 6.039062 17.445312 6.035156 16.6875 6.03125 C 16.6875 5.863281 16.695312 5.710938 16.71875 5.542969 C 16.722656 5.523438 16.726562 5.5 16.726562 5.476562 C 16.738281 5.40625 16.75 5.335938 16.757812 5.265625 C 16.8125 4.921875 16.859375 4.578125 16.902344 4.234375 C 16.945312 3.886719 16.988281 3.539062 17.035156 3.191406 C 17.050781 3.078125 17.066406 2.96875 17.082031 2.859375 C 17.089844 2.789062 17.097656 2.71875 17.109375 2.648438 C 17.113281 2.613281 17.117188 2.582031 17.121094 2.546875 C 17.125 2.519531 17.128906 2.488281 17.132812 2.457031 C 17.136719 2.429688 17.140625 2.402344 17.144531 2.375 C 17.15625 2.3125 17.15625 2.3125 17.1875 2.25 Z M 17.1875 2.25 "/>
<path style=" stroke:none;fill-rule:nonzero;fill:rgb(98.039216%,98.039216%,98.431373%);fill-opacity:1;" d="M 15.734375 11.867188 C 15.789062 11.867188 15.789062 11.867188 15.839844 11.867188 C 15.894531 11.867188 15.894531 11.867188 15.953125 11.867188 C 16.011719 11.867188 16.011719 11.867188 16.070312 11.867188 C 16.171875 11.867188 16.277344 11.867188 16.378906 11.867188 C 16.480469 11.867188 16.585938 11.867188 16.6875 11.867188 C 16.769531 11.867188 16.847656 11.867188 16.929688 11.867188 C 16.964844 11.867188 17 11.867188 17.039062 11.867188 C 17.539062 11.867188 18 11.996094 18.375 12.34375 C 18.632812 12.644531 18.707031 13.003906 18.695312 13.390625 C 18.65625 13.882812 18.527344 14.328125 18.21875 14.71875 C 18.203125 14.738281 18.1875 14.761719 18.171875 14.785156 C 17.816406 15.230469 17.257812 15.449219 16.707031 15.523438 C 16.445312 15.550781 16.179688 15.546875 15.914062 15.546875 C 15.804688 15.542969 15.695312 15.546875 15.589844 15.546875 C 15.519531 15.546875 15.449219 15.546875 15.378906 15.546875 C 15.347656 15.546875 15.316406 15.546875 15.28125 15.546875 C 15.09375 15.546875 14.988281 15.53125 14.84375 15.40625 C 14.71875 15.242188 14.789062 14.976562 14.8125 14.78125 C 14.828125 14.660156 14.847656 14.542969 14.867188 14.425781 C 14.878906 14.355469 14.890625 14.285156 14.902344 14.214844 C 14.910156 14.179688 14.914062 14.144531 14.921875 14.109375 C 14.949219 13.933594 14.972656 13.757812 15 13.585938 C 15.015625 13.480469 15.03125 13.378906 15.046875 13.277344 C 15.058594 13.207031 15.070312 13.136719 15.082031 13.066406 C 15.097656 12.960938 15.113281 12.859375 15.128906 12.753906 C 15.132812 12.722656 15.136719 12.691406 15.140625 12.660156 C 15.183594 12.382812 15.234375 12.140625 15.4375 11.9375 C 15.539062 11.875 15.617188 11.867188 15.734375 11.867188 Z M 15.734375 11.867188 "/>
</g>
</svg>
